<svg width="33" height="33" viewBox="0 0 33 33" fill="none" xmlns="http://www.w3.org/2000/svg">
<path d="M28.2344 30.1685H4.23438C3.7041 30.1679 3.1957 29.957 2.82075 29.5821C2.44579 29.2071 2.2349 28.6987 2.23438 28.1685V22.1685C2.2349 21.6382 2.44579 21.1298 2.82075 20.7548C3.1957 20.3799 3.7041 20.169 4.23438 20.1685H28.2344C28.7646 20.169 29.273 20.3799 29.648 20.7548C30.023 21.1298 30.2338 21.6382 30.2344 22.1685V28.1685C30.2338 28.6987 30.023 29.2071 29.648 29.5821C29.273 29.957 28.7646 30.1679 28.2344 30.1685ZM4.23438 22.1685V28.1685H28.2344V22.1685H4.23438Z" fill="black"/>
<path d="M7.23438 26.1685C7.78666 26.1685 8.23438 25.7207 8.23438 25.1685C8.23438 24.6162 7.78666 24.1685 7.23438 24.1685C6.68209 24.1685 6.23438 24.6162 6.23438 25.1685C6.23438 25.7207 6.68209 26.1685 7.23438 26.1685Z" fill="black"/>
<path d="M19.2344 11.7545L17.2344 9.75446V6.16846H15.2344V10.5825L17.8204 13.1685L19.2344 11.7545Z" fill="black"/>
<path d="M16.2344 18.1685C14.6521 18.1685 13.1054 17.6993 11.7898 16.8202C10.4742 15.9412 9.44884 14.6917 8.84334 13.2299C8.23784 11.7681 8.07941 10.1596 8.3881 8.60774C8.69678 7.05589 9.4587 5.63043 10.5775 4.51161C11.6963 3.39279 13.1218 2.63086 14.6737 2.32218C16.2255 2.0135 17.834 2.17192 19.2958 2.77742C20.7577 3.38293 22.0071 4.40831 22.8861 5.7239C23.7652 7.03949 24.2344 8.58621 24.2344 10.1685C24.2317 12.2894 23.388 14.3227 21.8883 15.8224C20.3886 17.3221 18.3553 18.1658 16.2344 18.1685ZM16.2344 4.16846C15.0477 4.16846 13.8877 4.52035 12.901 5.17964C11.9143 5.83893 11.1452 6.776 10.6911 7.87236C10.237 8.96872 10.1182 10.1751 10.3497 11.339C10.5812 12.5029 11.1526 13.572 11.9917 14.4111C12.8309 15.2502 13.9 15.8217 15.0638 16.0532C16.2277 16.2847 17.4341 16.1659 18.5305 15.7117C19.6268 15.2576 20.5639 14.4886 21.2232 13.5019C21.8825 12.5152 22.2344 11.3551 22.2344 10.1685C22.2325 8.57773 21.5998 7.05268 20.475 5.92787C19.3502 4.80305 17.8251 4.17031 16.2344 4.16846Z" fill="black"/>
</svg>
