<svg width="45" height="46" viewBox="0 0 45 46" fill="none" xmlns="http://www.w3.org/2000/svg">
<path d="M26.3541 26.9618V30.8588C24.6665 30.2622 22.8604 30.0792 21.0874 30.3252C19.3144 30.5712 17.6263 31.239 16.1649 32.2726C14.7035 33.3061 13.5115 34.6753 12.6888 36.265C11.8662 37.8548 11.4371 39.6187 11.4374 41.4087L7.70822 41.4068C7.70764 39.1299 8.22829 36.8831 9.23028 34.8386C10.2323 32.794 11.689 31.006 13.4889 29.6115C15.2887 28.217 17.3839 27.253 19.6139 26.7934C21.8439 26.3338 24.1495 26.3908 26.3541 26.96V26.9618ZM22.6249 24.6274C16.4438 24.6274 11.4374 19.621 11.4374 13.4398C11.4374 7.25874 16.4438 2.25232 22.6249 2.25232C28.806 2.25232 33.8125 7.25874 33.8125 13.4398C33.8125 19.621 28.806 24.6274 22.6249 24.6274ZM22.6249 20.8982C26.7457 20.8982 30.0833 17.5606 30.0833 13.4398C30.0833 9.31911 26.7457 5.9815 22.6249 5.9815C18.5042 5.9815 15.1666 9.31911 15.1666 13.4398C15.1666 17.5606 18.5042 20.8982 22.6249 20.8982ZM34.9051 32.0857L31.4948 28.6773L34.1332 26.0389L42.0428 33.9503L34.1332 41.8618L31.4948 39.2234L34.9051 35.8149H28.2187V32.0857H34.9051Z" fill="#91C2E2"/>
<circle cx="22.6249" cy="13.25" r="5.25" fill="#FF5F5F"/>
</svg>
