<svg width="41" height="41" viewBox="0 0 41 41" fill="none" xmlns="http://www.w3.org/2000/svg">
<path d="M20.0192 37.5357C16.6674 37.4969 13.3974 36.4851 10.6079 34.6213C7.7629 32.7203 5.54551 30.0184 4.23611 26.8572C2.92672 23.6961 2.58412 20.2176 3.25165 16.8618C3.91917 13.5059 5.56683 10.4233 7.98628 8.00388C10.4057 5.58443 13.4883 3.93676 16.8442 3.26924C20.2 2.60171 23.6785 2.94431 26.8397 4.25371C30.0008 5.5631 32.7027 7.78049 34.6037 10.6255C36.5046 13.4704 37.5192 16.8152 37.5192 20.2368C37.5192 20.5879 37.4962 20.9341 37.4707 21.2868H15.2605H15.0551L15.0606 21.4921C15.1902 26.3783 16.623 31.1411 19.2108 35.2877L19.2609 35.368L19.3548 35.3802C19.5753 35.4087 19.7971 35.4265 20.0192 35.4335V37.5357ZM35.1567 19.1868H35.3745L35.356 18.9698C35.0927 15.8796 33.8912 12.9436 31.9126 10.5553C29.934 8.16694 27.2728 6.4403 24.2855 5.60668L23.8407 5.48256L24.0544 5.89191C26.1706 9.94389 27.3395 14.4233 27.4731 18.9927L27.4787 19.1868H27.673H35.1567ZM21.2264 5.18592L21.073 5.2817L21.0852 5.09352C20.5112 5.01822 19.9298 5.01822 19.3557 5.09352L19.2621 5.10581L19.2121 5.18592C16.6238 9.33244 15.1905 14.0952 15.0606 18.9815L15.0551 19.1868H15.2605H25.178H25.3834L25.3779 18.9815C25.2479 14.0952 23.8146 9.33244 21.2264 5.18592ZM16.3468 5.65659L16.1542 5.46414L16.0671 5.63091C13.1148 6.47363 10.4856 8.19005 8.52605 10.5555C6.54749 12.9438 5.34598 15.8796 5.08245 18.9698L5.06395 19.1868H5.28173H12.7655H12.9597L12.9654 18.9926C13.0976 14.4525 14.2519 10.001 16.3419 5.96925L16.5904 5.89989L16.3481 5.65784L16.3468 5.65659ZM5.28173 21.2868H5.06395L5.08245 21.5038C5.34598 24.594 6.54749 27.5299 8.52605 29.9182C10.5046 32.3065 13.1657 34.0332 16.153 34.867L16.5978 34.9911L16.384 34.5817C14.268 30.5297 13.0991 26.0503 12.9654 21.481L12.9597 21.2868H12.7655H5.28173Z" fill="#91C2E2" stroke="white" stroke-width="0.4"/>
<path fill-rule="evenodd" clip-rule="evenodd" d="M31.4692 31.4868L37.7192 33.9868V31.4868L31.4692 28.3618V25.2368C31.4692 24.9053 31.3375 24.5874 31.1031 24.3529C30.8687 24.1185 30.5508 23.9868 30.2192 23.9868C29.8877 23.9868 29.5698 24.1185 29.3354 24.3529C29.1009 24.5874 28.9692 24.9053 28.9692 25.2368V28.3618L22.7192 31.4868V33.9868L28.9692 31.4868V35.8618L26.4692 37.7368V38.9868L30.2192 37.7368L33.9692 38.9868V37.7368L31.4692 35.8618V31.4868Z" fill="#FF5F5F"/>
</svg>
