<svg width="39" height="39" viewBox="0 0 39 39" fill="none" xmlns="http://www.w3.org/2000/svg">
<path d="M4.59473 18.2368H34.5947V29.2368C34.5947 30.3414 33.6993 31.2368 32.5947 31.2368H6.59473C5.49016 31.2368 4.59473 30.3414 4.59473 29.2368V18.2368Z" fill="#FF5F5F" stroke="#91C2E2" stroke-width="2" stroke-linejoin="round"/>
<path d="M4.59473 3.23682C4.59473 2.13225 5.49016 1.23682 6.59473 1.23682H32.5947C33.6993 1.23682 34.5947 2.13225 34.5947 3.23682V18.2368H4.59473V3.23682Z" stroke="#91C2E2" stroke-width="2" stroke-linejoin="round"/>
<path d="M10.5947 37.2368C8.93783 37.2368 7.59473 35.8937 7.59473 34.2368V31.2368H13.5947V34.2368C13.5947 35.8937 12.2516 37.2368 10.5947 37.2368Z" fill="white" stroke="#91C2E2" stroke-width="2" stroke-linecap="round" stroke-linejoin="round"/>
<path d="M28.5947 37.2368C26.9378 37.2368 25.5947 35.8937 25.5947 34.2368V31.2368H31.5947V34.2368C31.5947 35.8937 30.2516 37.2368 28.5947 37.2368Z" fill="white" stroke="#91C2E2" stroke-width="2" stroke-linecap="round" stroke-linejoin="round"/>
<path d="M1.59473 7.23682V11.2368" stroke="#91C2E2" stroke-width="2" stroke-linecap="round"/>
<path d="M37.5947 7.23682V11.2368" stroke="#91C2E2" stroke-width="2" stroke-linecap="round"/>
<path d="M10.5947 27.2368C11.6993 27.2368 12.5947 26.3414 12.5947 25.2368C12.5947 24.1322 11.6993 23.2368 10.5947 23.2368C9.49016 23.2368 8.59473 24.1322 8.59473 25.2368C8.59473 26.3414 9.49016 27.2368 10.5947 27.2368Z" fill="white"/>
<path d="M28.5947 27.2368C29.6993 27.2368 30.5947 26.3414 30.5947 25.2368C30.5947 24.1322 29.6993 23.2368 28.5947 23.2368C27.4902 23.2368 26.5947 24.1322 26.5947 25.2368C26.5947 26.3414 27.4902 27.2368 28.5947 27.2368Z" fill="white"/>
<path d="M26.5947 1.23682L17.5947 11.2368" stroke="#91C2E2" stroke-width="2" stroke-linecap="round"/>
<path d="M33.5947 2.23682L28.5947 8.23682" stroke="#91C2E2" stroke-width="2" stroke-linecap="round"/>
</svg>
