<svg width="48" height="48" viewBox="0 0 48 48" fill="none" xmlns="http://www.w3.org/2000/svg">
<path d="M23.2305 12.7717L21.5925 11.1337M27.5979 17.1391L26.5056 16.0477M31.9653 21.5075L30.874 20.4151M36.8794 26.4205L35.2414 24.7825" stroke="#FF5F5F" stroke-width="3" stroke-miterlimit="10" stroke-linecap="round"/>
<path d="M34.6947 13.3233C33.8693 12.4977 33.3861 11.3909 33.3416 10.2243C33.2971 9.0577 33.6946 7.9173 34.4546 7.03117C34.5175 6.95747 34.5502 6.86273 34.5461 6.76595C34.5421 6.66917 34.5016 6.57749 34.4328 6.5093L30.0545 2.12604C29.9821 2.0537 29.884 2.01306 29.7817 2.01306C29.6793 2.01306 29.5812 2.0537 29.5088 2.12604L22.5301 9.10473C22.2726 9.36215 22.0787 9.67603 21.9636 10.0215C21.849 10.3677 21.6553 10.6825 21.3978 10.9408C21.1403 11.1991 20.8262 11.3939 20.4804 11.5097C20.1347 11.6249 19.8205 11.8188 19.5626 12.0762L1.66547 29.9694C1.59313 30.0418 1.55249 30.1399 1.55249 30.2422C1.55249 30.3446 1.59313 30.4427 1.66547 30.5151L6.04377 34.8934C6.11196 34.9622 6.20364 35.0026 6.30042 35.0067C6.3972 35.0107 6.49193 34.9781 6.56563 34.9152C7.45158 34.1543 8.59223 33.7562 9.75922 33.8004C10.9262 33.8447 12.0334 34.3281 12.8592 35.1539C13.685 35.9796 14.1684 37.0868 14.2126 38.2538C14.2569 39.4208 13.8587 40.5615 13.0979 41.4474C13.035 41.5211 13.0023 41.6159 13.0064 41.7126C13.0104 41.8094 13.0509 41.9011 13.1197 41.9693L17.498 46.3476C17.5704 46.4199 17.6685 46.4606 17.7708 46.4606C17.8732 46.4606 17.9713 46.4199 18.0437 46.3476L35.9418 28.4504C36.1992 28.1925 36.3932 27.8784 36.5083 27.5327C36.623 27.1865 36.8167 26.8717 37.0742 26.6134C37.3316 26.3551 37.6457 26.1603 37.9916 26.0445C38.337 25.9294 38.6509 25.7355 38.9083 25.478L45.887 18.4993C45.9594 18.4269 46 18.3288 46 18.2264C46 18.1241 45.9594 18.026 45.887 17.9536L41.5087 13.5753C41.4405 13.5065 41.3489 13.466 41.2521 13.462C41.1553 13.4579 41.0606 13.4906 40.9869 13.5535C40.1019 14.3148 38.9623 14.7141 37.7957 14.6714C36.6291 14.6287 35.5216 14.1473 34.6947 13.3233V13.3233Z" stroke="#91C2E2" stroke-width="3" stroke-miterlimit="10"/>
</svg>
