<svg width="39" height="41" viewBox="0 0 39 41" fill="none" xmlns="http://www.w3.org/2000/svg">
<path d="M17.0649 34.5501V34.7501H17.2649H19.7601C20.4235 35.8584 21.1452 36.8631 21.7687 37.7164H0.633228V1.08684H30.5302V18.4542C29.613 18.0107 28.6099 17.6995 27.5639 17.5872V4.25317V4.05317H27.3639H3.79956H3.59956V4.25317V34.5501V34.7501H3.79956H13.8985H14.0985V34.5501V28.859H17.0649V34.5501ZM20.8312 14.5522H23.7975V17.5185H20.8312V14.5522ZM20.8312 7.8195H23.7975V10.7858H20.8312V7.8195ZM17.0649 21.2848V24.2511H14.0985V21.2848H17.0649ZM14.0985 10.7858V7.8195H17.0649V10.7858H14.0985ZM17.0649 14.5522V17.5185H14.0985V14.5522H17.0649ZM7.36588 10.7858V7.8195H10.3322V10.7858H7.36588ZM7.36588 17.5185V14.5522H10.3322V17.5185H7.36588ZM10.3322 28.0175V30.9838H7.36588V28.0175H10.3322ZM7.36588 24.2511V21.2848H10.3322V24.2511H7.36588ZM32.2133 26.9759C32.2133 28.0292 31.8576 29.2301 31.3104 30.4497C30.7644 31.6665 30.0346 32.887 29.3019 33.9756C28.5696 35.0635 27.8369 36.0161 27.2872 36.6967C27.0124 37.0369 26.7835 37.309 26.6235 37.4957C26.5858 37.5397 26.552 37.5789 26.5223 37.6132C26.4925 37.5789 26.4587 37.5397 26.421 37.4957C26.261 37.309 26.0322 37.0369 25.7574 36.6967C25.2076 36.0161 24.4749 35.0635 23.7427 33.9756C23.01 32.887 22.2802 31.6665 21.7341 30.4497C21.1869 29.2301 20.8312 28.0292 20.8312 26.9759C20.8312 23.8883 23.4347 21.2848 26.5223 21.2848C29.6098 21.2848 32.2133 23.8883 32.2133 26.9759ZM28.742 27.1277C28.7366 26.5635 28.4552 26.017 28.0523 25.6142C27.6455 25.2074 27.0923 24.9244 26.5223 24.9244C25.4128 24.9244 24.3025 25.8449 24.3025 27.1442C24.3025 28.2536 25.223 29.364 26.5223 29.364C27.1679 29.364 27.7648 29.0879 28.1785 28.6742C28.5877 28.2651 28.8319 27.7049 28.742 27.1277Z" fill="#91C2E2" stroke="white" stroke-width="0.4"/>
<path d="M26.6674 37.8651C25.4528 36.8291 24.327 35.6933 23.3017 34.4696C21.7631 32.6319 19.936 29.8951 19.936 27.2872C19.9353 25.9553 20.3298 24.6531 21.0694 23.5455C21.8091 22.4379 22.8607 21.5746 24.0912 21.0648C25.3217 20.5551 26.6758 20.4219 27.982 20.682C29.2883 20.9421 30.488 21.5839 31.4294 22.5261C32.0561 23.1501 32.5529 23.8922 32.8909 24.7094C33.229 25.5266 33.4016 26.4028 33.3988 27.2872C33.3988 29.8951 31.5717 32.6319 30.0331 34.4696C29.0078 35.6933 27.882 36.829 26.6674 37.8651ZM26.6674 24.4023C25.9023 24.4023 25.1685 24.7062 24.6275 25.2472C24.0864 25.7883 23.7825 26.522 23.7825 27.2872C23.7825 28.0523 24.0864 28.7861 24.6275 29.3271C25.1685 29.8681 25.9023 30.172 26.6674 30.172C27.4325 30.172 28.1663 29.8681 28.7073 29.3271C29.2483 28.7861 29.5523 28.0523 29.5523 27.2872C29.5523 26.522 29.2483 25.7883 28.7073 25.2472C28.1663 24.7062 27.4325 24.4023 26.6674 24.4023Z" fill="#FF5F5F"/>
<ellipse cx="26.6674" cy="27.2371" rx="3.56947" ry="3.56947" fill="white"/>
</svg>
