<svg width="47" height="48" viewBox="0 0 47 48" fill="none" xmlns="http://www.w3.org/2000/svg">
<path d="M15.1135 18.863C15.1202 18.8624 15.1253 18.862 15.1285 18.8619H31.8717C31.8749 18.862 31.8801 18.8624 31.8871 18.863C31.906 18.8645 31.9376 18.8678 31.9794 18.8745C32.0635 18.888 32.1867 18.9149 32.33 18.9679C32.6125 19.0724 32.9713 19.2771 33.2729 19.6856C33.2738 19.687 33.2747 19.6883 33.2755 19.6897C33.2792 19.6953 33.283 19.7013 33.2874 19.7082L33.2893 19.7113C33.2961 19.722 33.306 19.7377 33.3163 19.753C33.3328 19.7779 33.3539 19.8077 33.3811 19.8398C33.4946 20.0223 33.6001 20.226 33.6761 20.4693L33.676 20.4694L33.679 20.4783C33.826 20.9193 34.0415 21.568 34.3255 22.423C34.4574 22.8203 34.6042 23.2621 34.7657 23.7483C35.2695 25.2644 35.917 27.2119 36.7083 29.5859V42.2339C36.7083 42.8556 36.2305 43.3202 35.6808 43.3202H34.8192C34.254 43.3202 33.7917 42.8599 33.7917 42.2339V39.9035V39.4035H33.2917H13.7083H13.2083V39.9035V42.2339C13.2083 42.8556 12.7305 43.3202 12.1808 43.3202H11.3192C10.7695 43.3202 10.2917 42.8556 10.2917 42.2339V29.5856C11.8827 24.7932 12.8925 21.7639 13.321 20.4783L13.3211 20.4783L13.3239 20.4693C13.3999 20.2261 13.5052 20.0225 13.6187 19.8401C13.6403 19.8148 13.6563 19.7934 13.6653 19.7813L13.6677 19.7781C13.6717 19.7728 13.6744 19.7692 13.6761 19.767L13.6992 19.744L13.723 19.7107C14.027 19.2867 14.3894 19.076 14.6728 18.9693C14.8157 18.9155 14.9383 18.8882 15.0219 18.8746C15.0635 18.8678 15.0949 18.8645 15.1135 18.863ZM16.3129 21.7785H15.9514L15.8381 22.1218L14.5456 26.0385L14.3289 26.6952H15.0204H31.9796H32.6699L32.4546 26.0393L31.6126 23.4738L31.6118 23.4717L31.1614 22.1204L31.0475 21.7785H30.6871H16.3129ZM33.2917 36.4869H33.7917V35.9869V30.1119V29.6119H33.2917H13.7083H13.2083V30.1119V35.9869V36.4869H13.7083H33.2917ZM20.7377 6.77963L20.8561 7.11186H21.2087H36.7083V10.0285H35.25H34.75V10.5285V13.9452H31.8333V10.5285V10.0285H31.3333H21.2087H20.858L20.7386 10.3583C19.9842 12.442 17.9916 13.9452 15.6667 13.9452C12.6931 13.9452 10.2917 11.5264 10.2917 8.57019C10.2917 5.59565 12.6917 3.19544 15.6662 3.19519C16.7778 3.19731 17.8615 3.54276 18.7693 4.18429C19.6772 4.82591 20.3647 5.73236 20.7377 6.77963ZM13.2083 8.57019C13.2083 9.92342 14.3134 11.0285 15.6667 11.0285C17.0199 11.0285 18.125 9.92342 18.125 8.57019C18.125 7.21696 17.0199 6.11186 15.6667 6.11186C14.3134 6.11186 13.2083 7.21696 13.2083 8.57019Z" stroke="#91C2E2"/>
<rect x="13.6257" y="30.1256" width="19.8444" height="5.875" fill="#FF5F5F"/>
<ellipse cx="18.7174" cy="33.0631" rx="1.43611" ry="1.43611" fill="white"/>
<ellipse cx="27.7257" cy="33.0631" rx="1.43611" ry="1.43611" fill="white"/>
</svg>
