<svg width="48" height="48" viewBox="0 0 48 48" fill="none" xmlns="http://www.w3.org/2000/svg">
<path d="M41.5864 12.0735L41.5868 12.0739C41.7257 12.2125 41.8358 12.3771 41.911 12.5583C41.9862 12.7395 42.0249 12.9338 42.0249 13.13C42.0249 13.3262 41.9862 13.5204 41.911 13.7017C41.8358 13.8829 41.7257 14.0475 41.5868 14.1861L41.94 14.54L41.5864 14.1864L32.6264 23.1464L32.2729 23.5L32.6264 23.8535L40.4064 31.6335C41.7712 32.9983 41.7712 35.2217 40.4064 36.5864L36.6064 40.3864C35.5427 41.4501 33.3041 42.037 31.6536 40.3864L23.8736 32.6064L23.52 32.2529L23.1664 32.6064L14.2729 41.5H6.5V33.7271L15.3736 24.8535L15.7271 24.5L15.3736 24.1464L7.59355 16.3664C6.22882 15.0017 6.22882 12.7783 7.59355 11.4135L11.3936 7.61354C12.7583 6.2488 14.9817 6.2488 16.3464 7.61354L24.1264 15.3935L24.48 15.7471L24.8336 15.3935L33.8136 6.41354L33.8139 6.41318C33.9525 6.27431 34.1171 6.16413 34.2983 6.08896C34.4795 6.01379 34.6738 5.9751 34.87 5.9751C35.0662 5.9751 35.2605 6.01379 35.4417 6.08896C35.6229 6.16413 35.7875 6.27431 35.9261 6.41318L35.9264 6.41354L41.5864 12.0735ZM14.2136 9.72643L13.8591 9.37194L13.5055 9.72737L9.72551 13.5274L10.08 13.88L9.72645 14.2335L17.4864 21.9935L17.84 22.3471L18.1936 21.9935L21.9936 18.1935L22.3471 17.84L21.9936 17.4864L19.5936 15.0864L19.24 14.7329L18.8864 15.0864L16.86 17.1129L14.7456 14.9985L16.755 12.972L17.1056 12.6185L16.7536 12.2664L14.2136 9.72643ZM32.54 28.76L32.8936 28.4064L30.4736 25.9864L30.12 25.6329L29.7664 25.9864L25.9664 29.7864L25.6129 30.14L25.9664 30.4935L33.7464 38.2735L34.1 38.6271L34.4536 38.2735L38.2536 34.4735L38.6071 34.12L38.2536 33.7664L35.7136 31.2264L35.36 30.8729L35.0064 31.2264L32.98 33.2529L30.8671 31.14L32.8936 29.1135L32.54 28.76ZM12.82 38.5H13.0271L13.1736 38.3535L32.3936 19.1335L32.7471 18.78L32.3936 18.4264L32.1736 18.2064L29.5736 15.6064L29.22 15.2529L28.8664 15.6064L9.64645 34.8264L9.5 34.9729V35.18V38V38.5H10H12.82ZM31.6864 12.7664L31.3329 13.12L31.6864 13.4735L34.5064 16.2935L34.86 16.6471L35.2136 16.2935L38.0336 13.4735L38.3871 13.12L38.0336 12.7664L35.2136 9.94643L34.86 9.59288L34.5064 9.94643L31.6864 12.7664Z" fill="#333344" stroke="#F7F8FE"/>
</svg>
