<svg width="48" height="48" viewBox="0 0 48 48" fill="none" xmlns="http://www.w3.org/2000/svg">
<path fill-rule="evenodd" clip-rule="evenodd" d="M39 26.7C39.3 28.5 39.6 30 40.2 31.8L42 36.9L40.5 39H30C30 40.5 29.4 42 28.2 43.2C27 44.4 25.5 45 24 45C22.5 45 20.7 44.4 19.8 43.2C18.6 42 18 40.5 18 39H7.5L6 36.9L7.8 31.8C8.4 29.4 9 27 9 24.6V18C9 15.9 9.3 13.8 10.2 12C11.1 9.9 12.3 8.4 13.8 6.9C15.3 5.4 17.1 4.5 19.2 3.9C20.7 3.3 22.5 3 24 3C23.4 3.9 22.8 5.1 22.2 6.3C21.6 6.3 21 6.3 20.1 6.9C18.6 7.2 17.1 8.1 15.9 9.3C14.7 10.2 13.5 11.7 12.9 13.2C12.3 14.7 12 16.2 12 18V24.6C12 27.3 11.4 30 10.8 32.7L9.6 36H38.4L37.2 32.7C36.675 31.122 36.378 29.31 36.111 27.678L36 27C37.2 27 38.1 27 39 26.7ZM24 42C24.6 42 25.5 41.7 26.1 41.1C26.7 40.5 27 39.9 27 39H21C21 39.9 21.3 40.5 21.9 41.1C22.5 41.7 23.4 42 24 42ZM45 12C45 14.3869 44.0518 16.6761 42.364 18.364C40.6761 20.0518 38.3869 21 36 21C33.6131 21 31.3239 20.0518 29.636 18.364C27.9482 16.6761 27 14.3869 27 12C27 9.61305 27.9482 7.32387 29.636 5.63604C31.3239 3.94821 33.6131 3 36 3C38.3869 3 40.6761 3.94821 42.364 5.63604C44.0518 7.32387 45 9.61305 45 12V12Z" fill="#333344"/>
</svg>
