<svg width="48" height="48" viewBox="0 0 48 48" fill="none" xmlns="http://www.w3.org/2000/svg">
<path fill-rule="evenodd" clip-rule="evenodd" d="M14.4 3.2002C14.8244 3.2002 15.2313 3.36877 15.5314 3.66882C15.8314 3.96888 16 4.37585 16 4.8002V6.4002H32V4.8002C32 4.37585 32.1686 3.96888 32.4686 3.66882C32.7687 3.36877 33.1757 3.2002 33.6 3.2002C34.0244 3.2002 34.4313 3.36877 34.7314 3.66882C35.0314 3.96888 35.2 4.37585 35.2 4.8002V6.4002H40C41.273 6.4002 42.4939 6.90591 43.3941 7.80608C44.2943 8.70626 44.8 9.92716 44.8 11.2002V40.0002C44.8 41.2732 44.2943 42.4941 43.3941 43.3943C42.4939 44.2945 41.273 44.8002 40 44.8002H8.00001C6.72697 44.8002 5.50607 44.2945 4.6059 43.3943C3.70573 42.4941 3.20001 41.2732 3.20001 40.0002V11.2002C3.20001 9.92716 3.70573 8.70626 4.6059 7.80608C5.50607 6.90591 6.72697 6.4002 8.00001 6.4002H12.8V4.8002C12.8 4.37585 12.9686 3.96888 13.2686 3.66882C13.5687 3.36877 13.9757 3.2002 14.4 3.2002ZM32 9.60019V11.2002C32 11.6245 32.1686 12.0315 32.4686 12.3316C32.7687 12.6316 33.1757 12.8002 33.6 12.8002C34.0244 12.8002 34.4313 12.6316 34.7314 12.3316C35.0314 12.0315 35.2 11.6245 35.2 11.2002V9.60019H40C40.4244 9.60019 40.8313 9.76877 41.1314 10.0688C41.4314 10.3689 41.6 10.7758 41.6 11.2002V16.0002H6.40001V11.2002C6.40001 10.7758 6.56858 10.3689 6.86864 10.0688C7.1687 9.76877 7.57567 9.60019 8.00001 9.60019H12.8V11.2002C12.8 11.6245 12.9686 12.0315 13.2686 12.3316C13.5687 12.6316 13.9757 12.8002 14.4 12.8002C14.8244 12.8002 15.2313 12.6316 15.5314 12.3316C15.8314 12.0315 16 11.6245 16 11.2002V9.60019H32ZM6.40001 19.2002V40.0002C6.40001 40.4245 6.56858 40.8315 6.86864 41.1316C7.1687 41.4316 7.57567 41.6002 8.00001 41.6002H40C40.4244 41.6002 40.8313 41.4316 41.1314 41.1316C41.4314 40.8315 41.6 40.4245 41.6 40.0002V19.2002H6.40001ZM22.4 24.0002C22.4 23.5758 22.5686 23.1689 22.8686 22.8688C23.1687 22.5688 23.5757 22.4002 24 22.4002C24.4244 22.4002 24.8313 22.5688 25.1314 22.8688C25.4314 23.1689 25.6 23.5758 25.6 24.0002C25.6 24.4245 25.4314 24.8315 25.1314 25.1316C24.8313 25.4316 24.4244 25.6002 24 25.6002C23.5757 25.6002 23.1687 25.4316 22.8686 25.1316C22.5686 24.8315 22.4 24.4245 22.4 24.0002ZM30.4 22.4002C29.9757 22.4002 29.5687 22.5688 29.2686 22.8688C28.9686 23.1689 28.8 23.5758 28.8 24.0002C28.8 24.4245 28.9686 24.8315 29.2686 25.1316C29.5687 25.4316 29.9757 25.6002 30.4 25.6002C30.8244 25.6002 31.2313 25.4316 31.5314 25.1316C31.8314 24.8315 32 24.4245 32 24.0002C32 23.5758 31.8314 23.1689 31.5314 22.8688C31.2313 22.5688 30.8244 22.4002 30.4 22.4002ZM35.2 24.0002C35.2 23.5758 35.3686 23.1689 35.6686 22.8688C35.9687 22.5688 36.3757 22.4002 36.8 22.4002C37.2244 22.4002 37.6313 22.5688 37.9314 22.8688C38.2314 23.1689 38.4 23.5758 38.4 24.0002C38.4 24.4245 38.2314 24.8315 37.9314 25.1316C37.6313 25.4316 37.2244 25.6002 36.8 25.6002C36.3757 25.6002 35.9687 25.4316 35.6686 25.1316C35.3686 24.8315 35.2 24.4245 35.2 24.0002ZM36.8 28.8002C36.3757 28.8002 35.9687 28.9688 35.6686 29.2688C35.3686 29.5689 35.2 29.9758 35.2 30.4002C35.2 30.8245 35.3686 31.2315 35.6686 31.5316C35.9687 31.8316 36.3757 32.0002 36.8 32.0002C37.2244 32.0002 37.6313 31.8316 37.9314 31.5316C38.2314 31.2315 38.4 30.8245 38.4 30.4002C38.4 29.9758 38.2314 29.5689 37.9314 29.2688C37.6313 28.9688 37.2244 28.8002 36.8 28.8002ZM28.8 30.4002C28.8 29.9758 28.9686 29.5689 29.2686 29.2688C29.5687 28.9688 29.9757 28.8002 30.4 28.8002C30.8244 28.8002 31.2313 28.9688 31.5314 29.2688C31.8314 29.5689 32 29.9758 32 30.4002C32 30.8245 31.8314 31.2315 31.5314 31.5316C31.2313 31.8316 30.8244 32.0002 30.4 32.0002C29.9757 32.0002 29.5687 31.8316 29.2686 31.5316C28.9686 31.2315 28.8 30.8245 28.8 30.4002ZM24 28.8002C23.5757 28.8002 23.1687 28.9688 22.8686 29.2688C22.5686 29.5689 22.4 29.9758 22.4 30.4002C22.4 30.8245 22.5686 31.2315 22.8686 31.5316C23.1687 31.8316 23.5757 32.0002 24 32.0002C24.4244 32.0002 24.8313 31.8316 25.1314 31.5316C25.4314 31.2315 25.6 30.8245 25.6 30.4002C25.6 29.9758 25.4314 29.5689 25.1314 29.2688C24.8313 28.9688 24.4244 28.8002 24 28.8002ZM16 30.4002C16 29.9758 16.1686 29.5689 16.4686 29.2688C16.7687 28.9688 17.1757 28.8002 17.6 28.8002C18.0244 28.8002 18.4313 28.9688 18.7314 29.2688C19.0314 29.5689 19.2 29.9758 19.2 30.4002C19.2 30.8245 19.0314 31.2315 18.7314 31.5316C18.4313 31.8316 18.0244 32.0002 17.6 32.0002C17.1757 32.0002 16.7687 31.8316 16.4686 31.5316C16.1686 31.2315 16 30.8245 16 30.4002ZM11.2 28.8002C10.7757 28.8002 10.3687 28.9688 10.0686 29.2688C9.76858 29.5689 9.60001 29.9758 9.60001 30.4002C9.60001 30.8245 9.76858 31.2315 10.0686 31.5316C10.3687 31.8316 10.7757 32.0002 11.2 32.0002C11.6244 32.0002 12.0313 31.8316 12.3314 31.5316C12.6314 31.2315 12.8 30.8245 12.8 30.4002C12.8 29.9758 12.6314 29.5689 12.3314 29.2688C12.0313 28.9688 11.6244 28.8002 11.2 28.8002ZM9.60001 36.8002C9.60001 36.3758 9.76858 35.9689 10.0686 35.6688C10.3687 35.3688 10.7757 35.2002 11.2 35.2002C11.6244 35.2002 12.0313 35.3688 12.3314 35.6688C12.6314 35.9689 12.8 36.3758 12.8 36.8002C12.8 37.2245 12.6314 37.6315 12.3314 37.9316C12.0313 38.2316 11.6244 38.4002 11.2 38.4002C10.7757 38.4002 10.3687 38.2316 10.0686 37.9316C9.76858 37.6315 9.60001 37.2245 9.60001 36.8002ZM17.6 35.2002C17.1757 35.2002 16.7687 35.3688 16.4686 35.6688C16.1686 35.9689 16 36.3758 16 36.8002C16 37.2245 16.1686 37.6315 16.4686 37.9316C16.7687 38.2316 17.1757 38.4002 17.6 38.4002C18.0244 38.4002 18.4313 38.2316 18.7314 37.9316C19.0314 37.6315 19.2 37.2245 19.2 36.8002C19.2 36.3758 19.0314 35.9689 18.7314 35.6688C18.4313 35.3688 18.0244 35.2002 17.6 35.2002ZM22.4 36.8002C22.4 36.3758 22.5686 35.9689 22.8686 35.6688C23.1687 35.3688 23.5757 35.2002 24 35.2002C24.4244 35.2002 24.8313 35.3688 25.1314 35.6688C25.4314 35.9689 25.6 36.3758 25.6 36.8002C25.6 37.2245 25.4314 37.6315 25.1314 37.9316C24.8313 38.2316 24.4244 38.4002 24 38.4002C23.5757 38.4002 23.1687 38.2316 22.8686 37.9316C22.5686 37.6315 22.4 37.2245 22.4 36.8002ZM30.4 35.2002C29.9757 35.2002 29.5687 35.3688 29.2686 35.6688C28.9686 35.9689 28.8 36.3758 28.8 36.8002C28.8 37.2245 28.9686 37.6315 29.2686 37.9316C29.5687 38.2316 29.9757 38.4002 30.4 38.4002C30.8244 38.4002 31.2313 38.2316 31.5314 37.9316C31.8314 37.6315 32 37.2245 32 36.8002C32 36.3758 31.8314 35.9689 31.5314 35.6688C31.2313 35.3688 30.8244 35.2002 30.4 35.2002Z" fill="#333344"/>
</svg>
