<svg width="16" height="16" viewBox="0 0 16 16" fill="none" xmlns="http://www.w3.org/2000/svg">
<path d="M13.9998 2.66663H7.33317L6.6665 0.666626H1.99984C1.2665 0.666626 0.666504 1.26663 0.666504 1.99996V12C0.666504 12.7333 1.2665 13.3333 1.99984 13.3333H7.33317L7.99984 15.3333H13.9998C14.7332 15.3333 15.3332 14.7333 15.3332 14V3.99996C15.3332 3.26663 14.7332 2.66663 13.9998 2.66663ZM4.6665 10.6666C2.8265 10.6666 1.33317 9.17329 1.33317 7.33329C1.33317 5.49329 2.8265 3.99996 4.6665 3.99996C5.5665 3.99996 6.31984 4.33329 6.89984 4.86663L6.01984 5.71329C5.7665 5.47329 5.3265 5.19329 4.6665 5.19329C3.5065 5.19329 2.5665 6.15329 2.5665 7.33329C2.5665 8.51329 3.5065 9.47329 4.6665 9.47329C6.0065 9.47329 6.55984 8.51329 6.61317 7.86663H4.6665V6.72663H7.7865C7.83317 6.93329 7.8665 7.13329 7.8665 7.40663C7.8665 9.31329 6.59317 10.6666 4.6665 10.6666ZM8.77984 7.05329H11.2465C10.9598 7.88663 10.5065 8.67329 9.87984 9.36663C9.67317 9.13329 9.47984 8.88663 9.3065 8.63329L8.77984 7.05329ZM14.3332 13.6666C14.3332 14.0333 14.0332 14.3333 13.6665 14.3333H9.33317L10.6665 12.6666L9.97317 10.6L12.0398 12.6666L12.6532 12.0533L10.4532 9.88663L10.4665 9.87329C11.2198 9.03996 11.7532 8.07996 12.0665 7.05996H13.3332V6.19329H10.3132V5.33329H9.45317V6.19329H8.49317L7.63984 3.66663H13.6665C14.0332 3.66663 14.3332 3.96663 14.3332 4.33329V13.6666Z" fill="#333344"/>
</svg>
