<svg width="23" height="24" viewBox="0 0 23 24" fill="none" xmlns="http://www.w3.org/2000/svg">
<path d="M11.5 18.4687C10.6698 18.4694 9.8523 18.2644 9.12069 17.8719C8.38907 17.4795 7.76612 16.9118 7.30753 16.2197L8.50497 15.4241C8.83277 15.9184 9.27781 16.3239 9.8004 16.6044C10.323 16.8849 10.9069 17.0317 11.5 17.0317C12.0931 17.0317 12.677 16.8849 13.1996 16.6044C13.7222 16.3239 14.1672 15.9184 14.495 15.4241L15.6925 16.2197C15.2339 16.9118 14.6109 17.4795 13.8793 17.8719C13.1477 18.2644 12.3302 18.4694 11.5 18.4687ZM14.375 10.5625C14.0907 10.5625 13.8128 10.6468 13.5764 10.8047C13.34 10.9627 13.1557 11.1872 13.0469 11.4498C12.9381 11.7125 12.9097 12.0015 12.9651 12.2804C13.0206 12.5592 13.1575 12.8154 13.3585 13.0164C13.5596 13.2175 13.8157 13.3544 14.0946 13.4098C14.3734 13.4653 14.6624 13.4368 14.9251 13.328C15.1878 13.2192 15.4123 13.035 15.5702 12.7986C15.7282 12.5622 15.8125 12.2843 15.8125 12C15.8144 11.8106 15.7786 11.6229 15.707 11.4476C15.6354 11.2723 15.5296 11.1131 15.3958 10.9792C15.2619 10.8453 15.1026 10.7395 14.9274 10.668C14.7521 10.5964 14.5643 10.5605 14.375 10.5625ZM8.625 10.5625C8.34069 10.5625 8.06276 10.6468 7.82637 10.8047C7.58997 10.9627 7.40572 11.1872 7.29692 11.4498C7.18812 11.7125 7.15966 12.0015 7.21512 12.2804C7.27059 12.5592 7.4075 12.8154 7.60854 13.0164C7.80957 13.2175 8.06571 13.3544 8.34456 13.4098C8.62341 13.4653 8.91244 13.4368 9.17511 13.328C9.43778 13.2192 9.66228 13.035 9.82024 12.7986C9.97819 12.5622 10.0625 12.2843 10.0625 12C10.0644 11.8106 10.0286 11.6229 9.95699 11.4476C9.88543 11.2723 9.77962 11.1131 9.64575 10.9792C9.51188 10.8453 9.35265 10.7395 9.17737 10.668C9.0021 10.5964 8.81431 10.5605 8.625 10.5625Z" fill="black"/>
<path d="M21.5625 12V10.5625H20.125V7.6875C20.124 6.92529 19.8208 6.19458 19.2819 5.65562C18.7429 5.11666 18.0122 4.81345 17.25 4.8125H15.8125V1.9375H14.375V4.8125H8.625V1.9375H7.1875V4.8125H5.75C4.98779 4.81345 4.25708 5.11666 3.71812 5.65562C3.17916 6.19458 2.87595 6.92529 2.875 7.6875V10.5625H1.4375V12H2.875V15.5938H1.4375V17.0312H2.875V19.1875C2.87595 19.9497 3.17916 20.6804 3.71812 21.2194C4.25708 21.7583 4.98779 22.0615 5.75 22.0625H17.25C18.0122 22.0615 18.7429 21.7583 19.2819 21.2194C19.8208 20.6804 20.124 19.9497 20.125 19.1875V17.0312H21.5625V15.5938H20.125V12H21.5625ZM18.6875 19.1875C18.6871 19.5686 18.5355 19.934 18.266 20.2035C17.9965 20.473 17.6311 20.6246 17.25 20.625H5.75C5.36887 20.6246 5.00346 20.473 4.73395 20.2035C4.46445 19.934 4.31288 19.5686 4.3125 19.1875V7.6875C4.31288 7.30637 4.46445 6.94096 4.73395 6.67145C5.00346 6.40195 5.36887 6.25038 5.75 6.25H17.25C17.6311 6.25038 17.9965 6.40195 18.266 6.67145C18.5355 6.94096 18.6871 7.30637 18.6875 7.6875V19.1875Z" fill="black"/>
</svg>
