<svg width="51" height="51" viewBox="0 0 51 51" fill="none" xmlns="http://www.w3.org/2000/svg">
<path fill-rule="evenodd" clip-rule="evenodd" d="M15.9637 39.9531L23.8584 31.044C22.8321 30.9228 22.0689 30.8622 21.2268 30.8622C14.2005 30.8622 0.174194 34.9228 0.174194 42.9835V49.0441H23.8584L15.9637 39.9531ZM21.2268 24.8016C27.0426 24.8016 31.7531 19.3773 31.7531 12.6803C31.7531 5.98334 27.0426 0.559082 21.2268 0.559082C15.411 0.559082 10.7005 5.98334 10.7005 12.6803C10.7005 19.3773 15.411 24.8016 21.2268 24.8016Z" fill="#333344"/>
<path fill-rule="evenodd" clip-rule="evenodd" d="M32.99 50.5589L23.8584 39.9528L27.5426 35.6801L32.99 41.9831L46.49 26.3164L50.1742 30.5891L32.99 50.5589Z" fill="#333344"/>
</svg>
