<svg width="51" height="51" viewBox="0 0 51 51" fill="none" xmlns="http://www.w3.org/2000/svg">
<path d="M46.1287 7.46564H23.4015L21.1287 0.647461H5.21965C2.71965 0.647461 0.674194 2.69292 0.674194 5.19292V39.2838C0.674194 41.7838 2.71965 43.8293 5.21965 43.8293H23.4015L25.6742 50.6475H46.1287C48.6287 50.6475 50.6742 48.602 50.6742 46.102V12.0111C50.6742 9.5111 48.6287 7.46564 46.1287 7.46564ZM14.3106 34.7384C8.03783 34.7384 2.94692 29.6475 2.94692 23.3747C2.94692 17.102 8.03783 12.0111 14.3106 12.0111C17.3787 12.0111 19.9469 13.1475 21.9242 14.9656L18.9242 17.852C18.0606 17.0338 16.5606 16.0793 14.3106 16.0793C10.356 16.0793 7.15147 19.352 7.15147 23.3747C7.15147 27.3975 10.356 30.6702 14.3106 30.6702C18.8787 30.6702 20.7651 27.3975 20.9469 25.1929H14.3106V21.3066H24.9469C25.106 22.0111 25.2196 22.6929 25.2196 23.6247C25.2196 30.1247 20.8787 34.7384 14.3106 34.7384ZM28.3333 22.4202H36.7424C35.7651 25.2611 34.2196 27.9429 32.0833 30.3066C31.3787 29.5111 30.7196 28.6702 30.1287 27.8066L28.3333 22.4202ZM47.2651 44.9656C47.2651 46.2156 46.2424 47.2384 44.9924 47.2384H30.2196L34.7651 41.5566L32.4015 34.5111L39.4469 41.5566L41.5378 39.4656L34.0378 32.0793L34.0833 32.0338C36.6515 29.1929 38.4697 25.9202 39.5378 22.4429H43.856V19.4884H33.5606V16.5566H30.6287V19.4884H27.356L24.4469 10.8747H44.9924C46.2424 10.8747 47.2651 11.8975 47.2651 13.1475V44.9656Z" fill="#333344"/>
</svg>
