<svg width="57" height="60" viewBox="0 0 57 60" fill="none" xmlns="http://www.w3.org/2000/svg">
<path d="M25.5568 50.7755V50.9755H25.7568H29.5246C30.5574 52.7069 31.6884 54.2698 32.65 55.5841H0.913867V0.889697H45.5911V26.9836C44.1723 26.279 42.6113 25.7881 40.9825 25.6253V5.69828V5.49828H40.7825H5.72245H5.52245V5.69828V50.7755V50.9755H5.72245H20.7482H20.9482V50.7755V42.2105H25.5568V50.7755ZM30.9654 20.924H35.5739V25.5326H30.9654V20.924ZM30.9654 10.9069H35.5739V15.5154H30.9654V10.9069ZM25.5568 30.9412V35.5498H20.9482V30.9412H25.5568ZM20.9482 15.5154V10.9069H25.5568V15.5154H20.9482ZM25.5568 20.924V25.5326H20.9482V20.924H25.5568ZM10.931 15.5154V10.9069H15.5396V15.5154H10.931ZM10.931 25.5326V20.924H15.5396V25.5326H10.931ZM15.5396 40.9583V45.5669H10.931V40.9583H15.5396ZM10.931 35.5498V30.9412H15.5396V35.5498H10.931ZM48.0954 39.5062C48.0954 41.0933 47.5601 42.8946 46.7434 44.7146C45.9279 46.5319 44.8389 48.3529 43.747 49.9751C42.6554 51.5968 41.5635 53.0164 40.7443 54.0306C40.3348 54.5376 39.9937 54.9431 39.7551 55.2216C39.6649 55.3269 39.5894 55.414 39.5304 55.4816C39.4714 55.414 39.3958 55.3269 39.3056 55.2216C39.0671 54.9431 38.7259 54.5376 38.3164 54.0306C37.4972 53.0164 36.4053 51.5968 35.3138 49.9751C34.2219 48.3529 33.1328 46.5319 32.3174 44.7146C31.5007 42.8946 30.9654 41.0933 30.9654 39.5062C30.9654 34.8585 34.8827 30.9412 39.5304 30.9412C44.1781 30.9412 48.0954 34.8585 48.0954 39.5062ZM42.7355 39.7401C42.73 38.9295 42.3254 38.1367 41.7378 37.5492C41.1463 36.9576 40.3467 36.5515 39.5304 36.5515C37.9283 36.5515 36.3252 37.8825 36.3252 39.7566C36.3252 41.3587 37.6563 42.9618 39.5304 42.9618C40.4634 42.9618 41.3272 42.5625 41.9257 41.9641C42.5195 41.3703 42.8664 40.5638 42.7355 39.7401Z" fill="white" stroke="white" stroke-width="0.4"/>
<path d="M39.7458 55.7077C37.9386 54.1662 36.2636 52.4764 34.7381 50.6557C32.4489 47.9215 29.7305 43.8496 29.7305 39.9694C29.7295 37.9877 30.3164 36.0503 31.4169 34.4023C32.5174 32.7543 34.0821 31.4699 35.9129 30.7115C37.7437 29.9531 39.7583 29.7549 41.7018 30.1419C43.6453 30.5289 45.4303 31.4838 46.8309 32.8857C47.7634 33.814 48.5025 34.9181 49.0055 36.134C49.5084 37.3499 49.7653 38.6535 49.7611 39.9694C49.7611 43.8496 47.0426 47.9215 44.7534 50.6557C43.228 52.4764 41.5529 54.1662 39.7458 55.7077ZM39.7458 35.6771C38.6074 35.6771 37.5156 36.1293 36.7107 36.9343C35.9057 37.7392 35.4535 38.831 35.4535 39.9694C35.4535 41.1077 35.9057 42.1995 36.7107 43.0045C37.5156 43.8094 38.6074 44.2616 39.7458 44.2616C40.8842 44.2616 41.9759 43.8094 42.7809 43.0045C43.5858 42.1995 44.038 41.1077 44.038 39.9694C44.038 38.831 43.5858 37.7392 42.7809 36.9343C41.9759 36.1293 40.8842 35.6771 39.7458 35.6771Z" fill="white"/>
</svg>
