<svg width="40" height="60" viewBox="0 0 40 60" fill="none" xmlns="http://www.w3.org/2000/svg">
<path d="M7.82923 23.9003H32.171C32.1734 23.9005 32.1763 23.9007 32.1797 23.901C32.2008 23.9028 32.2399 23.9067 32.2935 23.9153C32.4012 23.9326 32.5628 23.9677 32.7521 24.0377C33.1223 24.1746 33.5942 24.4426 33.9944 24.9816C33.9987 24.9883 34.0034 24.9958 34.0093 25.0051L34.012 25.0093C34.0218 25.0247 34.0379 25.0502 34.0547 25.0755C34.08 25.1133 34.1125 25.1596 34.1543 25.2104C34.3072 25.4582 34.4452 25.7286 34.5449 26.0478L34.5477 26.0568L34.5507 26.0657C34.7645 26.707 35.0777 27.65 35.4906 28.8932C35.6827 29.4715 35.8964 30.1148 36.1317 30.8229C36.8617 33.0199 37.7991 35.8393 38.9441 39.2744V57.6317C38.9441 58.3947 38.3621 58.9396 37.7217 58.9396H36.4681C35.8075 58.9396 35.2457 58.4032 35.2457 57.6317V54.2412V53.2412H34.2457H5.75401H4.75401V54.2412V57.6317C4.75401 58.3947 4.17201 58.9396 3.53165 58.9396H2.27802C1.63766 58.9396 1.05566 58.3947 1.05566 57.6317L1.05566 39.2738C3.36242 32.3256 4.82687 27.9323 5.44906 26.0657L5.45204 26.0568L5.45485 26.0478C5.55446 25.729 5.6922 25.4589 5.84489 25.2113C5.87536 25.1747 5.89755 25.145 5.90924 25.1293C5.91062 25.1275 5.91186 25.1258 5.91295 25.1243C5.91298 25.1243 5.91301 25.1243 5.91304 25.1242L5.94917 25.0881L5.99687 25.0216C6.4021 24.4564 6.88141 24.1792 7.25333 24.0391C7.44161 23.9682 7.60217 23.9327 7.70896 23.9153C7.76201 23.9067 7.80062 23.9027 7.82127 23.901C7.82434 23.9007 7.827 23.9005 7.82923 23.9003ZM9.54341 27.5987H8.82037L8.59378 28.2853L6.71333 33.9836L6.27991 35.297H7.66296H32.3368H33.7175L33.2869 33.9851L32.0618 30.2527L32.0603 30.2484L31.405 28.2824L31.1771 27.5987H30.4563H9.54341ZM34.2457 49.5429H35.2457V48.5429V39.9954V38.9954H34.2457H5.75401H4.75401V39.9954V48.5429V49.5429H5.75401H34.2457ZM15.7243 6.14083L15.961 6.80528H16.6663H38.9441V10.5036H37.0949H36.0949V11.5036V16.202H32.3966V11.5036V10.5036H31.3966H16.6663H15.9649L15.7261 11.1632C14.6656 14.0922 11.8654 16.202 8.60318 16.202C4.42801 16.202 1.05566 12.8055 1.05566 8.65445C1.05566 4.47741 4.42535 1.10742 8.60227 1.10693C10.1632 1.10997 11.6852 1.5951 12.9599 2.496C14.2349 3.39707 15.2004 4.67006 15.7243 6.14083ZM4.75401 8.65445C4.75401 10.7738 6.48385 12.5036 8.60318 12.5036C10.7225 12.5036 12.4524 10.7738 12.4524 8.65445C12.4524 6.53512 10.7225 4.80528 8.60318 4.80528C6.48385 4.80528 4.75401 6.53512 4.75401 8.65445Z" stroke="white" stroke-width="2"/>
<rect x="10.9531" y="40.0153" width="28.8716" height="8.54752" fill="white"/>
<ellipse cx="18.3604" cy="44.2892" rx="2.08939" ry="2.08939" fill="#040911"/>
<ellipse cx="31.4673" cy="44.2892" rx="2.08939" ry="2.08939" fill="#040911"/>
</svg>
