<svg width="55" height="47" viewBox="0 0 55 47" fill="none" xmlns="http://www.w3.org/2000/svg">
<path d="M18.3727 17.4691L25.3421 12.5524H39.6004V17.4691H26.9548L19.9338 22.3857H2.72545V17.4691H18.3727ZM20.6246 29.9082L27.8152 27.2901L29.4967 31.9118L22.3061 34.5275C22.6446 37.226 21.9771 39.9547 20.4312 42.1924C18.8853 44.43 16.5692 46.0197 13.9255 46.6579C11.2817 47.2961 8.49544 46.938 6.09895 45.6521C3.70245 44.3661 1.86365 42.2424 0.933771 39.6866C0.00388968 37.1308 0.048097 34.322 1.05795 31.7967C2.0678 29.2714 3.97252 27.2066 6.4083 25.9967C8.84408 24.7868 11.6402 24.5166 14.2626 25.2377C16.885 25.9588 19.1498 27.6206 20.6246 29.9058V29.9082ZM11.3296 42.0524C12.9596 42.0524 14.5228 41.4049 15.6754 40.2523C16.8279 39.0998 17.4754 37.5366 17.4754 35.9066C17.4754 34.2766 16.8279 32.7134 15.6754 31.5608C14.5228 30.4082 12.9596 29.7607 11.3296 29.7607C9.69964 29.7607 8.13642 30.4082 6.98385 31.5608C5.83129 32.7134 5.18378 34.2766 5.18378 35.9066C5.18378 37.5366 5.83129 39.0998 6.98385 40.2523C8.13642 41.4049 9.69964 42.0524 11.3296 42.0524ZM43.2879 46.9691C41.8352 46.9691 40.3967 46.6829 39.0545 46.127C37.7123 45.5711 36.4928 44.7562 35.4656 43.7289C34.4383 42.7017 33.6235 41.4822 33.0675 40.14C32.5116 38.7979 32.2254 37.3593 32.2254 35.9066C32.2254 34.4538 32.5116 33.0153 33.0675 31.6731C33.6235 30.331 34.4383 29.1115 35.4656 28.0842C36.4928 27.057 37.7123 26.2421 39.0545 25.6862C40.3967 25.1302 41.8352 24.8441 43.2879 24.8441C46.2219 24.8441 49.0357 26.0096 51.1103 28.0842C53.1849 30.1588 54.3504 32.9726 54.3504 35.9066C54.3504 38.8405 53.1849 41.6543 51.1103 43.7289C49.0357 45.8036 46.2219 46.9691 43.2879 46.9691ZM43.2879 42.0524C44.9179 42.0524 46.4811 41.4049 47.6337 40.2523C48.7863 39.0998 49.4338 37.5366 49.4338 35.9066C49.4338 34.2766 48.7863 32.7134 47.6337 31.5608C46.4811 30.4082 44.9179 29.7607 43.2879 29.7607C41.658 29.7607 40.0947 30.4082 38.9422 31.5608C37.7896 32.7134 37.1421 34.2766 37.1421 35.9066C37.1421 37.5366 37.7896 39.0998 38.9422 40.2523C40.0947 41.4049 41.658 42.0524 43.2879 42.0524ZM7.64211 19.9274H22.3921L28.7838 15.6671L29.4721 13.0957L34.2216 14.3691L29.4967 31.8995L25.0176 29.7165L25.3077 28.6348L19.9338 32.2191L17.4754 27.3024H7.64211V19.9274ZM37.3683 7.63574H46.9754V15.0107H40.0528L44.7728 27.9809L40.1511 29.6624L34.8214 15.0107H34.6838V14.6371L31.2421 5.17741H24.8504V0.260742H34.6838L37.3683 7.63574Z" fill="white"/>
</svg>
