<svg width="50" height="59" viewBox="0 0 50 59" fill="none" xmlns="http://www.w3.org/2000/svg">
<path d="M27.2012 36.8475V42.5106C24.7488 41.6435 22.1241 41.3776 19.5476 41.735C16.9711 42.0925 14.518 43.063 12.3943 44.565C10.2706 46.067 8.53825 48.0567 7.34282 50.3669C6.14738 52.6771 5.52373 55.2404 5.52422 57.8416L0.104981 57.8389C0.10414 54.5301 0.860751 51.2651 2.31684 48.294C3.77293 45.3228 5.88985 42.7244 8.50539 40.6979C11.1209 38.6714 14.1657 37.2705 17.4063 36.6026C20.647 35.9347 23.9975 36.0176 27.2012 36.8447V36.8475ZM21.7819 33.455C12.7996 33.455 5.52422 26.1797 5.52422 17.1973C5.52422 8.2149 12.7996 0.939575 21.7819 0.939575C30.7643 0.939575 38.0397 8.2149 38.0397 17.1973C38.0397 26.1797 30.7643 33.455 21.7819 33.455ZM21.7819 28.0358C27.7702 28.0358 32.6204 23.1856 32.6204 17.1973C32.6204 11.209 27.7702 6.35882 21.7819 6.35882C15.7937 6.35882 10.9435 11.209 10.9435 17.1973C10.9435 23.1856 15.7937 28.0358 21.7819 28.0358ZM39.6275 44.2935L34.6716 39.3403L38.5057 35.5062L49.9999 47.0031L38.5057 58.5L34.6716 54.6659L39.6275 49.7127H29.9108V44.2935H39.6275Z" fill="white"/>
</svg>
