<svg width="29" height="29" viewBox="0 0 29 29" fill="none" xmlns="http://www.w3.org/2000/svg">
<path d="M26.4902 9.13379V7.38379H24.6519C24.539 6.83606 24.3215 6.31525 24.0114 5.84991L25.3151 4.54616L24.0779 3.30891L22.7741 4.61266C22.3088 4.30249 21.788 4.08501 21.2402 3.97216V2.13379H19.4902V3.97216C18.9425 4.08501 18.4217 4.30249 17.9564 4.61266L16.6526 3.30891L15.4154 4.54616L16.7191 5.84991C16.4089 6.31525 16.1915 6.83606 16.0786 7.38379H14.2402V9.13379H16.0786C16.1915 9.68152 16.4089 10.2023 16.7191 10.6677L15.4154 11.9714L16.6526 13.2087L17.9564 11.9049C18.4217 12.2151 18.9425 12.4326 19.4902 12.5454V14.3838H21.2402V12.5454C21.788 12.4326 22.3088 12.2151 22.7741 11.9049L24.0779 13.2087L25.3151 11.9714L24.0114 10.6677C24.3215 10.2023 24.539 9.68152 24.6519 9.13379H26.4902ZM20.3652 10.8838C19.8461 10.8838 19.3385 10.7298 18.9069 10.4414C18.4752 10.153 18.1387 9.74299 17.9401 9.26333C17.7414 8.78368 17.6894 8.25588 17.7907 7.74668C17.892 7.23748 18.142 6.76975 18.5091 6.40263C18.8762 6.03552 19.3439 5.78551 19.8531 5.68423C20.3623 5.58294 20.8901 5.63493 21.3698 5.83361C21.8494 6.03229 22.2594 6.36874 22.5478 6.80042C22.8363 7.2321 22.9902 7.73961 22.9902 8.25879C22.9895 8.95477 22.7128 9.62204 22.2206 10.1142C21.7285 10.6063 21.0612 10.8831 20.3652 10.8838Z" fill="#8A8A95"/>
<path d="M22.1151 26.6338H21.9664C4.77264 25.645 2.33139 11.1375 1.99014 6.71004C1.93681 6.01594 2.16137 5.32909 2.61442 4.80055C3.06748 4.27201 3.71193 3.94508 4.40602 3.89166C4.47544 3.88641 4.54514 3.88379 4.61514 3.88379H9.22639C9.57688 3.88345 9.9194 3.98836 10.2096 4.18493C10.4997 4.3815 10.7242 4.66068 10.8539 4.98629L12.1839 8.25879C12.3119 8.57689 12.3437 8.92561 12.2753 9.26162C12.2068 9.59763 12.0412 9.90613 11.7989 10.1488L9.93514 12.03C10.2251 13.685 11.017 15.2107 12.2034 16.4002C13.3899 17.5898 14.9135 18.3857 16.5676 18.68L18.4664 16.7988C18.7127 16.5592 19.0241 16.3974 19.3618 16.3336C19.6994 16.2698 20.0484 16.3068 20.3651 16.44L23.6639 17.7613C23.9846 17.8951 24.2582 18.1213 24.4499 18.4111C24.6416 18.701 24.7426 19.0413 24.7401 19.3888V24.0088C24.7401 24.705 24.4636 25.3727 23.9713 25.8649C23.479 26.3572 22.8113 26.6338 22.1151 26.6338ZM4.61514 5.63379C4.50024 5.63344 4.38639 5.65574 4.28009 5.69939C4.1738 5.74304 4.07715 5.80721 3.99565 5.88821C3.91416 5.96922 3.84942 6.06549 3.80513 6.17152C3.76084 6.27754 3.73786 6.39126 3.73752 6.50617C3.73752 6.53067 3.73752 6.55429 3.74014 6.57879C4.14264 11.7588 6.72389 24.0088 22.0626 24.8838C22.2942 24.8977 22.5219 24.819 22.6955 24.6651C22.8691 24.5112 22.9744 24.2946 22.9884 24.063L22.9901 24.0088V19.3888L19.6914 18.0675L17.1801 20.5613L16.7601 20.5088C9.14764 19.555 8.11514 11.9425 8.11514 11.8638L8.06264 11.4438L10.5476 8.93254L9.23514 5.63379H4.61514Z" fill="#8A8A95"/>
</svg>
