<svg width="29" height="29" viewBox="0 0 29 29" fill="none" xmlns="http://www.w3.org/2000/svg">
<path d="M25.1292 5.60229H3.35145C2.93889 5.60229 2.54323 5.76618 2.25151 6.05791C1.95979 6.34963 1.7959 6.74529 1.7959 7.15785V22.7134C1.7959 23.126 1.95979 23.5216 2.25151 23.8133C2.54323 24.1051 2.93889 24.269 3.35145 24.269H25.1292C25.5418 24.269 25.9375 24.1051 26.2292 23.8133C26.5209 23.5216 26.6848 23.126 26.6848 22.7134V7.15785C26.6848 6.74529 26.5209 6.34963 26.2292 6.05791C25.9375 5.76618 25.5418 5.60229 25.1292 5.60229V5.60229ZM23.9315 22.7134H4.64256L10.087 17.0823L8.96701 16.0012L3.35145 21.8112V8.34007L13.0192 17.9612C13.3107 18.2509 13.7049 18.4135 14.1159 18.4135C14.5269 18.4135 14.9211 18.2509 15.2126 17.9612L25.1292 8.09896V21.7101L19.4048 15.9856L18.3081 17.0823L23.9315 22.7134ZM4.37034 7.15785H23.8692L14.1159 16.8567L4.37034 7.15785Z" fill="#8A8A95"/>
</svg>
