<svg width="29" height="29" viewBox="0 0 29 29" fill="none" xmlns="http://www.w3.org/2000/svg">
<path d="M18.6152 2.71387C17.3855 2.71359 16.1728 3.00136 15.0743 3.55414C13.9758 4.10691 13.0221 4.90932 12.2896 5.89704C11.557 6.88477 11.066 8.03036 10.8559 9.24201C10.6458 10.4537 10.7225 11.6977 11.0797 12.8744L1.99023 21.9639V27.2139H7.24023L16.3297 18.1244C17.4129 18.4532 18.5542 18.5446 19.6759 18.3924C20.7976 18.2402 21.8733 17.8479 22.8297 17.2424C23.7861 16.6369 24.6007 15.8323 25.218 14.8835C25.8353 13.9346 26.2408 12.8639 26.4069 11.7442C26.5729 10.6244 26.4956 9.48208 26.1803 8.39493C25.8649 7.30778 25.3189 6.3014 24.5794 5.44436C23.8399 4.58732 22.9244 3.89977 21.8951 3.42858C20.8659 2.95738 19.7472 2.7136 18.6152 2.71387ZM18.6152 16.7139C18.0128 16.7135 17.4137 16.6245 16.8372 16.4496L15.8336 16.1451L15.0925 16.8862L12.3091 19.6696L11.1025 18.4639L9.86523 19.7011L11.0719 20.9077L9.68411 22.2955L8.47748 21.0889L7.24023 22.3261L8.44686 23.5327L6.51573 25.4639H3.74023V22.6884L12.317 14.1116L13.059 13.3705L12.7545 12.3669C12.3805 11.134 12.4048 9.81457 12.8239 8.59629C13.243 7.37801 14.0357 6.32292 15.089 5.58109C16.1424 4.83926 17.4028 4.44848 18.6911 4.46433C19.9794 4.48018 21.2298 4.90185 22.2646 5.66937C23.2994 6.43689 24.0658 7.51116 24.4548 8.73938C24.8439 9.9676 24.8357 11.2872 24.4315 12.5105C24.0273 13.7338 23.2476 14.7985 22.2034 15.5532C21.1592 16.3078 19.9036 16.714 18.6152 16.7139Z" fill="#8A8A95"/>
<path d="M19.4902 11.4639C20.4567 11.4639 21.2402 10.6804 21.2402 9.71387C21.2402 8.74737 20.4567 7.96387 19.4902 7.96387C18.5237 7.96387 17.7402 8.74737 17.7402 9.71387C17.7402 10.6804 18.5237 11.4639 19.4902 11.4639Z" fill="#8A8A95"/>
</svg>
